<?xml version="1.0" encoding="UTF-8"?>
<svg width="1200pt" height="1200pt" version="1.1" viewBox="0 0 1200 1200" xmlns="http://www.w3.org/2000/svg">
 <path d="m600 62.484c-296.48 0-537.52 241.03-537.52 537.52s240.98 537.52 537.52 537.52c296.48 0 537.52-240.98 537.52-537.52 0-296.48-241.03-537.52-537.52-537.52zm-155.02 305.02c0-85.5 69.516-155.02 155.02-155.02s155.02 69.516 155.02 155.02v234.98c0 85.5-69.516 155.02-155.02 155.02s-155.02-69.516-155.02-155.02zm192.52 516.52v66c0 20.484-17.016 37.5-37.5 37.5s-37.5-17.016-37.5-37.5v-66c-154.5-18.516-274.5-150-274.5-309.52 0-20.484 17.016-37.5 37.5-37.5s37.5 17.016 37.5 37.5c0 130.5 106.5 237 237 237s237-106.5 237-237c0-20.484 17.016-37.5 37.5-37.5s37.5 17.016 37.5 37.5c0 159.52-120 291-274.5 309.52z"/>
</svg>
